# xmcd
#
# Track frame offsets: 
#        150
#        5475
#        10274
#        18448
#        27597
#        47621
#        57596
#        65695
#        84744
#        95243
#
# Disc length: 1514 seconds
#
# Revision: 0
# Processed by: cddbd v1.5.2PL0 Copyright (c) Steve Scherf et al.
# Submitted via: ExactAudioCopy v0.99pb4
#
DISCID=8505e80a
DTITLE=CzarNok (Hayczar and Enok) - That One Way: album sampler
DYEAR=2005
DGENRE=Hip-Hop
TTITLE0=Intro
TTITLE1=Just For You (Snippet)
TTITLE2=She Walked My Way (Snippet)
TTITLE3=Pimpin' and Gansta (Snippet)
TTITLE4=Hercules
TTITLE5=Gangsta (Snippet)
TTITLE6=Throw Me That Pack (Snippet)
TTITLE7=G.A.M.E.
TTITLE8=Pimp Tight (Snippet)
TTITLE9=Beauty Queen
EXTD=
EXTT0=
EXTT1=
EXTT2=
EXTT3=
EXTT4=
EXTT5=
EXTT6=
EXTT7=
EXTT8=
EXTT9=
PLAYORDER=
